<svg width="40" height="40" viewBox="0 0 40 40" fill="none" xmlns="http://www.w3.org/2000/svg">
<mask id="path-1-inside-1_576_6965" fill="white">
<rect width="20.5336" height="26.9746" rx="2" transform="matrix(0.965583 -0.260096 0.257548 0.966266 5 8.67407)"/>
</mask>
<rect width="20.5336" height="26.9746" rx="2" transform="matrix(0.965583 -0.260096 0.257548 0.966266 5 8.67407)" fill="#0F0F0F" stroke="white" stroke-width="6" mask="url(#path-1-inside-1_576_6965)"/>
<mask id="path-2-inside-2_576_6965" fill="white">
<rect x="14.4736" y="9.68262" width="20.5263" height="26.9841" rx="2"/>
</mask>
<rect x="14.4736" y="9.68262" width="20.5263" height="26.9841" rx="2" fill="#0F0F0F" stroke="white" stroke-width="6" mask="url(#path-2-inside-2_576_6965)"/>
<path d="M30.2631 22.381C30.2631 21.7557 30.1201 21.1365 29.8424 20.5587C29.5647 19.981 29.1576 19.4561 28.6445 19.0139C28.1313 18.5717 27.5221 18.2209 26.8516 17.9816C26.1811 17.7423 25.4625 17.6191 24.7368 17.6191C24.011 17.6191 23.2924 17.7423 22.6219 17.9816C21.9515 18.2209 21.3422 18.5717 20.8291 19.0139C20.3159 19.4561 19.9088 19.981 19.6311 20.5587C19.3534 21.1365 19.2104 21.7557 19.2104 22.381L24.7368 22.381H30.2631Z" fill="white"/>
<path d="M19.2106 23.9683C19.2106 24.5937 19.3535 25.2129 19.6312 25.7906C19.9089 26.3684 20.316 26.8933 20.8292 27.3355C21.3423 27.7777 21.9516 28.1284 22.622 28.3677C23.2925 28.6071 24.0111 28.7302 24.7369 28.7302C25.4626 28.7302 26.1812 28.6071 26.8517 28.3677C27.5222 28.1284 28.1314 27.7777 28.6446 27.3355C29.1577 26.8933 29.5648 26.3684 29.8425 25.7906C30.1202 25.2129 30.2632 24.5937 30.2632 23.9683L24.7369 23.9683L19.2106 23.9683Z" fill="white"/>
<ellipse cx="24.7368" cy="23.1747" rx="2.36842" ry="2.38095" fill="#0F0F0F"/>
<path d="M26.3157 23.1747C26.3157 24.0513 25.6088 24.762 24.7368 24.762C23.8648 24.762 23.1578 24.0513 23.1578 23.1747C23.1578 22.2981 23.8648 21.5874 24.7368 21.5874C25.6088 21.5874 26.3157 22.2981 26.3157 23.1747Z" fill="white"/>
<path d="M25.5263 23.1745C25.5263 23.6128 25.1729 23.9682 24.7369 23.9682C24.3008 23.9682 23.9474 23.6128 23.9474 23.1745C23.9474 22.7362 24.3008 22.3809 24.7369 22.3809C25.1729 22.3809 25.5263 22.7362 25.5263 23.1745Z" fill="#0F0F0F"/>
</svg>
